<svg width="320" height="100" viewBox="0 0 320 100" fill="none" xmlns="http://www.w3.org/2000/svg">
  <defs>
    <!-- Golden Gradient -->
    <linearGradient id="goldGradient" x1="0%" y1="0%" x2="100%" y2="100%">
      <stop offset="0%" style="stop-color:#FFD700;stop-opacity:1" />
      <stop offset="50%" style="stop-color:#FFC107;stop-opacity:1" />
      <stop offset="100%" style="stop-color:#FFB300;stop-opacity:1" />
    </linearGradient>
    
    <!-- Text Gradient -->
    <linearGradient id="textGradient" x1="0%" y1="0%" x2="100%" y2="0%">
      <stop offset="0%" style="stop-color:#FFD700;stop-opacity:1" />
      <stop offset="25%" style="stop-color:#FFC107;stop-opacity:1" />
      <stop offset="75%" style="stop-color:#FFD700;stop-opacity:1" />
      <stop offset="100%" style="stop-color:#FFB300;stop-opacity:1" />
    </linearGradient>
    
    <!-- Shimmer Animation -->
    <linearGradient id="shimmer" x1="0%" y1="0%" x2="100%" y2="0%">
      <stop offset="0%" style="stop-color:transparent;stop-opacity:0" />
      <stop offset="45%" style="stop-color:#FFFFFF;stop-opacity:0.2" />
      <stop offset="55%" style="stop-color:#FFFFFF;stop-opacity:0.2" />
      <stop offset="100%" style="stop-color:transparent;stop-opacity:0" />
      <animateTransform attributeName="gradientTransform" type="translate" 
                        values="-150 0;400 0;-150 0" dur="6s" repeatCount="indefinite"/>
    </linearGradient>
    
    <!-- Glow Filter -->
    <filter id="textGlow" x="-50%" y="-50%" width="200%" height="200%">
      <feGaussianBlur stdDeviation="1.5" result="coloredBlur"/>
      <feMerge> 
        <feMergeNode in="coloredBlur"/>
        <feMergeNode in="SourceGraphic"/>
      </feMerge>
    </filter>
    
    <!-- Wave Glow Filter -->
    <filter id="waveGlow" x="-50%" y="-50%" width="200%" height="200%">
      <feGaussianBlur stdDeviation="1.5" result="coloredBlur"/>
      <feMerge> 
        <feMergeNode in="coloredBlur"/>
        <feMergeNode in="SourceGraphic"/>
      </feMerge>
    </filter>
    
    <!-- Drop Shadow -->
    <filter id="subtleShadow" x="-50%" y="-50%" width="200%" height="200%">
      <feDropShadow dx="0" dy="3" stdDeviation="6" flood-color="#FFD700" flood-opacity="0.4"/>
    </filter>
  </defs>
  
  <!-- Main Brand Name -->
  <g transform="translate(20, 30)">
    <!-- KARUNA with larger, more prominent styling -->
    <text x="0" y="25" 
          font-family="Inter, -apple-system, BlinkMacSystemFont, system-ui, sans-serif" 
          font-size="42" 
          font-weight="700" 
          fill="url(#textGradient)" 
          letter-spacing="-2px"
          filter="url(#textGlow)">KARUNA</text>
    
    <!-- Shimmer overlay effect -->
    <text x="0" y="25" 
          font-family="Inter, -apple-system, BlinkMacSystemFont, system-ui, sans-serif" 
          font-size="42" 
          font-weight="700" 
          fill="url(#shimmer)" 
          letter-spacing="-2px">KARUNA</text>
    
    <!-- Electronics subtitle -->
    <text x="0" y="43" 
          font-family="Inter, -apple-system, BlinkMacSystemFont, system-ui, sans-serif" 
          font-size="12" 
          font-weight="500" 
          fill="#A1A1A6" 
          letter-spacing="3px" 
          text-transform="uppercase"
          opacity="0.8">ELECTRONICS</text>
  </g>
  
  <!-- Fourier Transform Modulated Sine Wave -->
  <g transform="translate(20, 75)">
    <!-- Base sine wave with Fourier harmonics -->
    <path d="M0 5 
             Q15 0, 30 5 
             T60 5 
             Q75 10, 90 5 
             T120 5
             Q135 0, 150 5
             T180 5
             Q195 8, 210 5
             T240 5
             Q255 2, 270 5" 
          stroke="url(#goldGradient)" 
          stroke-width="2" 
          fill="none" 
          opacity="0.8"
          filter="url(#waveGlow)">
      <!-- Animate the wave with frequency modulation -->
      <animate attributeName="d" 
               values="M0 5 Q15 0, 30 5 T60 5 Q75 10, 90 5 T120 5 Q135 0, 150 5 T180 5 Q195 8, 210 5 T240 5 Q255 2, 270 5;
                       M0 5 Q15 8, 30 2 T60 8 Q75 0, 90 8 T120 2 Q135 10, 150 2 T180 8 Q195 0, 210 8 T240 2 Q255 6, 270 5;
                       M0 5 Q15 2, 30 8 T60 2 Q75 6, 90 2 T120 8 Q135 4, 150 8 T180 2 Q195 10, 210 2 T240 8 Q255 0, 270 5;
                       M0 5 Q15 0, 30 5 T60 5 Q75 10, 90 5 T120 5 Q135 0, 150 5 T180 5 Q195 8, 210 5 T240 5 Q255 2, 270 5" 
               dur="6s" 
               repeatCount="indefinite"/>
    </path>
    
    <!-- Second harmonic (Fourier component) -->
    <path d="M0 5 
             Q7.5 3, 15 5 
             Q22.5 7, 30 5
             Q37.5 3, 45 5
             Q52.5 7, 60 5
             Q67.5 3, 75 5
             Q82.5 7, 90 5
             Q97.5 3, 105 5
             Q112.5 7, 120 5
             Q127.5 3, 135 5
             Q142.5 7, 150 5
             Q157.5 3, 165 5
             Q172.5 7, 180 5
             Q187.5 3, 195 5
             Q202.5 7, 210 5
             Q217.5 3, 225 5
             Q232.5 7, 240 5
             Q247.5 3, 255 5
             Q262.5 7, 270 5" 
          stroke="url(#goldGradient)" 
          stroke-width="1.5" 
          fill="none" 
          opacity="0.6"
          filter="url(#waveGlow)">
      <animate attributeName="d" 
               values="M0 5 Q7.5 3, 15 5 Q22.5 7, 30 5 Q37.5 3, 45 5 Q52.5 7, 60 5 Q67.5 3, 75 5 Q82.5 7, 90 5 Q97.5 3, 105 5 Q112.5 7, 120 5 Q127.5 3, 135 5 Q142.5 7, 150 5 Q157.5 3, 165 5 Q172.5 7, 180 5 Q187.5 3, 195 5 Q202.5 7, 210 5 Q217.5 3, 225 5 Q232.5 7, 240 5 Q247.5 3, 255 5 Q262.5 7, 270 5;
                       M0 5 Q7.5 7, 15 5 Q22.5 3, 30 5 Q37.5 7, 45 5 Q52.5 3, 60 5 Q67.5 7, 75 5 Q82.5 3, 90 5 Q97.5 7, 105 5 Q112.5 3, 120 5 Q127.5 7, 135 5 Q142.5 3, 150 5 Q157.5 7, 165 5 Q172.5 3, 180 5 Q187.5 7, 195 5 Q202.5 3, 210 5 Q217.5 7, 225 5 Q232.5 3, 240 5 Q247.5 7, 255 5 Q262.5 3, 270 5;
                       M0 5 Q7.5 3, 15 5 Q22.5 7, 30 5 Q37.5 3, 45 5 Q52.5 7, 60 5 Q67.5 3, 75 5 Q82.5 7, 90 5 Q97.5 3, 105 5 Q112.5 7, 120 5 Q127.5 3, 135 5 Q142.5 7, 150 5 Q157.5 3, 165 5 Q172.5 7, 180 5 Q187.5 3, 195 5 Q202.5 7, 210 5 Q217.5 3, 225 5 Q232.5 7, 240 5 Q247.5 3, 255 5 Q262.5 7, 270 5" 
               dur="3s" 
               repeatCount="indefinite"/>
    </path>
    
    <!-- Third harmonic (higher frequency component) -->
    <path d="M0 5 
             Q5 4, 10 5 
             Q15 6, 20 5
             Q25 4, 30 5
             Q35 6, 40 5
             Q45 4, 50 5
             Q55 6, 60 5
             Q65 4, 70 5
             Q75 6, 80 5
             Q85 4, 90 5
             Q95 6, 100 5
             Q105 4, 110 5
             Q115 6, 120 5
             Q125 4, 130 5
             Q135 6, 140 5
             Q145 4, 150 5
             Q155 6, 160 5
             Q165 4, 170 5
             Q175 6, 180 5
             Q185 4, 190 5
             Q195 6, 200 5
             Q205 4, 210 5
             Q215 6, 220 5
             Q225 4, 230 5
             Q235 6, 240 5
             Q245 4, 250 5
             Q255 6, 260 5
             Q265 4, 270 5" 
          stroke="url(#goldGradient)" 
          stroke-width="1" 
          fill="none" 
          opacity="0.4"
          filter="url(#waveGlow)">
      <animate attributeName="d" 
               values="M0 5 Q5 4, 10 5 Q15 6, 20 5 Q25 4, 30 5 Q35 6, 40 5 Q45 4, 50 5 Q55 6, 60 5 Q65 4, 70 5 Q75 6, 80 5 Q85 4, 90 5 Q95 6, 100 5 Q105 4, 110 5 Q115 6, 120 5 Q125 4, 130 5 Q135 6, 140 5 Q145 4, 150 5 Q155 6, 160 5 Q165 4, 170 5 Q175 6, 180 5 Q185 4, 190 5 Q195 6, 200 5 Q205 4, 210 5 Q215 6, 220 5 Q225 4, 230 5 Q235 6, 240 5 Q245 4, 250 5 Q255 6, 260 5 Q265 4, 270 5;
                       M0 5 Q5 6, 10 5 Q15 4, 20 5 Q25 6, 30 5 Q35 4, 40 5 Q45 6, 50 5 Q55 4, 60 5 Q65 6, 70 5 Q75 4, 80 5 Q85 6, 90 5 Q95 4, 100 5 Q105 6, 110 5 Q115 4, 120 5 Q125 6, 130 5 Q135 4, 140 5 Q145 6, 150 5 Q155 4, 160 5 Q165 6, 170 5 Q175 4, 180 5 Q185 6, 190 5 Q195 4, 200 5 Q205 6, 210 5 Q215 4, 220 5 Q225 6, 230 5 Q235 4, 240 5 Q245 6, 250 5 Q255 4, 260 5 Q265 6, 270 5;
                       M0 5 Q5 4, 10 5 Q15 6, 20 5 Q25 4, 30 5 Q35 6, 40 5 Q45 4, 50 5 Q55 6, 60 5 Q65 4, 70 5 Q75 6, 80 5 Q85 4, 90 5 Q95 6, 100 5 Q105 4, 110 5 Q115 6, 120 5 Q125 4, 130 5 Q135 6, 140 5 Q145 4, 150 5 Q155 6, 160 5 Q165 4, 170 5 Q175 6, 180 5 Q185 4, 190 5 Q195 6, 200 5 Q205 4, 210 5 Q215 6, 220 5 Q225 4, 230 5 Q235 6, 240 5 Q245 4, 250 5 Q255 6, 260 5 Q265 4, 270 5" 
               dur="1.5s" 
               repeatCount="indefinite"/>
    </path>
    
    <!-- Amplitude modulation envelope -->
    <path d="M0 5 L270 5" 
          stroke="url(#goldGradient)" 
          stroke-width="0.5" 
          stroke-dasharray="2,3" 
          opacity="0.3">
      <animate attributeName="stroke-dasharray" values="2,3;4,2;2,3" dur="4s" repeatCount="indefinite"/>
    </path>
  </g>
  
  <!-- Frequency spectrum indicators (representing Fourier components) -->
  <g transform="translate(270, 15)" opacity="0.6">
    <!-- Fundamental frequency -->
    <rect x="0" y="35" width="3" height="15" fill="url(#goldGradient)" rx="1.5">
      <animate attributeName="height" values="15;25;15" dur="6s" repeatCount="indefinite"/>
    </rect>
    <!-- Second harmonic -->
    <rect x="6" y="40" width="3" height="10" fill="url(#goldGradient)" rx="1.5">
      <animate attributeName="height" values="10;18;10" dur="3s" repeatCount="indefinite"/>
    </rect>
    <!-- Third harmonic -->
    <rect x="12" y="42" width="3" height="8" fill="url(#goldGradient)" rx="1.5">
      <animate attributeName="height" values="8;14;8" dur="1.5s" repeatCount="indefinite"/>
    </rect>
    <!-- Fourth harmonic -->
    <rect x="18" y="44" width="3" height="6" fill="url(#goldGradient)" rx="1.5">
      <animate attributeName="height" values="6;10;6" dur="0.75s" repeatCount="indefinite"/>
    </rect>
  </g>
  
  <!-- Elegant border frame -->
  <rect x="10" y="10" width="300" height="80" 
        fill="none" 
        stroke="url(#goldGradient)" 
        stroke-width="0.5" 
        opacity="0.2" 
        rx="10"/>
</svg>